<?xml version="1.0" encoding="utf-8"?>
<!-- Generator: Adobe Illustrator 16.0.4, SVG Export Plug-In . SVG Version: 6.00 Build 0)  -->
<!DOCTYPE svg PUBLIC "-//W3C//DTD SVG 1.1//EN" "http://www.w3.org/Graphics/SVG/1.1/DTD/svg11.dtd">
<svg version="1.1" id="Warstwa_1" xmlns="http://www.w3.org/2000/svg" xmlns:xlink="http://www.w3.org/1999/xlink" x="0px" y="0px"
	 width="800px" height="560px" viewBox="0 0 800 560" enable-background="new 0 0 800 560" xml:space="preserve">
<g>
	<g>
		<line fill="none" stroke="#FC0019" stroke-width="2" stroke-miterlimit="10" x1="401.5" y1="81.5" x2="549.097" y2="81.5"/>
		<g>
			<polygon fill="#FC0019" points="546.323,85.567 561.5,81.5 546.323,77.433 			"/>
		</g>
	</g>
</g>
<g>
	<g>
		
			<line fill="none" stroke="#FC0019" stroke-width="2" stroke-miterlimit="10" x1="232.331" y1="161.496" x2="326.735" y2="48.038"/>
		<g>
			<polygon fill="#FC0019" points="328.088,52.772 334.668,38.504 321.834,47.569 			"/>
		</g>
	</g>
</g>
<circle fill="none" stroke="#000000" stroke-width="2" stroke-miterlimit="10" cx="400.5" cy="299.5" r="217.5"/>
<g>
	<g>
		<line fill="none" stroke="#000000" stroke-width="2" stroke-miterlimit="10" x1="231.341" y1="162.685" x2="401" y2="299"/>
		<g>
			<circle cx="231.517" cy="162.826" r="4.512"/>
		</g>
	</g>
</g>
<g>
	<g>
		<line fill="none" stroke="#000000" stroke-width="2" stroke-miterlimit="10" x1="401" y1="81.786" x2="401" y2="298.714"/>
		<g>
			<circle cx="401" cy="82.012" r="4.512"/>
		</g>
		<g>
			<circle cx="401" cy="298.488" r="4.512"/>
		</g>
	</g>
</g>
<g enable-background="new    ">
	<path d="M488.924,61.178c0,1.361-0.263,2.77-0.787,4.223c-0.524,1.454-1.238,2.742-2.139,3.864
		c-1.381,1.711-2.797,2.566-4.251,2.566c-0.791,0-1.444-0.217-1.96-0.648c-0.515-0.433-0.772-0.989-0.772-1.67
		c0-0.846,0.358-2.115,1.077-3.809l1.6-3.781c0.221-0.515,0.332-0.855,0.332-1.021c0-0.386-0.221-0.579-0.662-0.579
		c-0.369,0-0.861,0.274-1.477,0.821c-0.617,0.549-1.062,1.102-1.34,1.658c-0.129,0.279-0.266,0.418-0.413,0.418
		c-0.166,0-0.249-0.064-0.249-0.193c0-0.404,0.506-1.085,1.519-2.042c0.956-0.901,1.895-1.353,2.815-1.353
		c0.57,0,1.029,0.147,1.379,0.44c0.35,0.294,0.525,0.68,0.525,1.156c0,0.515-0.176,1.176-0.525,1.982l-1.545,3.58
		c-0.516,1.193-0.773,2.203-0.773,3.029c0,0.954,0.396,1.432,1.188,1.432c1.159,0,2.424-1.059,3.795-3.175
		c1.371-2.115,2.057-4.084,2.057-5.906c0-0.606-0.129-0.91-0.387-0.91c-0.019,0-0.105,0.022-0.262,0.068
		c-0.157,0.047-0.291,0.069-0.4,0.069c-0.497,0-0.746-0.229-0.746-0.69c0-0.294,0.115-0.547,0.346-0.759
		c0.229-0.211,0.501-0.317,0.814-0.317C488.51,59.632,488.924,60.147,488.924,61.178z"/>
</g>
<g>
	<g enable-background="new    ">
		<path d="M417.8,171.311c0.032,0.05,0.048,0.105,0.048,0.168c-0.009,0.092-0.018,0.16-0.025,0.206l-1.373,5.256l0.312-0.622
			c0.646-1.268,1.402-2.424,2.269-3.471c0.866-1.048,1.69-1.571,2.472-1.571c0.422,0,0.747,0.14,0.977,0.418
			c0.229,0.278,0.344,0.598,0.344,0.957c0,0.404-0.115,0.739-0.344,1.004c-0.229,0.266-0.545,0.397-0.947,0.397
			c-0.278,0-0.489-0.054-0.633-0.161c-0.143-0.108-0.256-0.234-0.336-0.378l-0.162-0.296c-0.035-0.055-0.078-0.097-0.127-0.128
			c-0.049-0.032-0.109-0.048-0.182-0.048c-0.352,0-0.857,0.49-1.518,1.469c-0.662,0.979-1.253,2.04-1.774,3.181
			c-0.315,0.692-0.665,1.608-1.052,2.75c-0.245,0.719-0.57,1.738-0.979,3.059h-2.068l2.246-8.113
			c0.126-0.467,0.227-0.885,0.304-1.253c0.076-0.368,0.114-0.669,0.114-0.903c0-0.27-0.067-0.476-0.202-0.619
			s-0.368-0.216-0.7-0.216c-0.108,0-0.243,0.009-0.404,0.026c-0.162,0.019-0.355,0.041-0.58,0.067v-0.444l0.539-0.107
			c0.701-0.144,1.468-0.297,2.299-0.459c0.832-0.161,1.27-0.242,1.314-0.242C417.713,171.236,417.769,171.261,417.8,171.311z"/>
	</g>
</g>
<g enable-background="new    ">
	<path d="M264.923,90.178c0,1.361-0.262,2.77-0.787,4.223c-0.524,1.454-1.238,2.742-2.139,3.864c-1.38,1.711-2.797,2.566-4.25,2.566
		c-0.791,0-1.444-0.217-1.959-0.648c-0.515-0.433-0.773-0.989-0.773-1.67c0-0.846,0.359-2.115,1.077-3.809l1.601-3.781
		c0.221-0.515,0.332-0.855,0.332-1.021c0-0.386-0.221-0.579-0.663-0.579c-0.368,0-0.86,0.274-1.477,0.821
		c-0.617,0.549-1.062,1.102-1.339,1.658c-0.129,0.279-0.267,0.418-0.414,0.418c-0.166,0-0.249-0.064-0.249-0.193
		c0-0.404,0.506-1.085,1.518-2.042c0.957-0.901,1.895-1.353,2.815-1.353c0.57,0,1.03,0.147,1.38,0.44
		c0.35,0.294,0.524,0.68,0.524,1.156c0,0.515-0.175,1.176-0.524,1.982l-1.545,3.58c-0.515,1.193-0.773,2.203-0.773,3.029
		c0,0.954,0.396,1.432,1.187,1.432c1.159,0,2.424-1.059,3.795-3.175c1.371-2.115,2.056-4.084,2.056-5.906
		c0-0.606-0.129-0.91-0.386-0.91c-0.019,0-0.106,0.022-0.262,0.068c-0.157,0.047-0.29,0.069-0.4,0.069
		c-0.497,0-0.745-0.229-0.745-0.69c0-0.294,0.115-0.547,0.345-0.759c0.229-0.211,0.501-0.317,0.814-0.317
		C264.509,88.632,264.923,89.147,264.923,90.178z"/>
</g>
<g>
	<g enable-background="new    ">
		<path d="M319.8,203.311c0.032,0.05,0.047,0.105,0.047,0.168c-0.008,0.092-0.017,0.16-0.025,0.206l-1.374,5.256l0.312-0.622
			c0.646-1.268,1.403-2.424,2.269-3.471c0.866-1.048,1.69-1.571,2.472-1.571c0.422,0,0.747,0.14,0.976,0.418
			s0.344,0.598,0.344,0.957c0,0.404-0.114,0.739-0.343,1.004c-0.229,0.266-0.544,0.397-0.948,0.397
			c-0.278,0-0.489-0.054-0.632-0.161c-0.143-0.108-0.255-0.234-0.336-0.378l-0.162-0.296c-0.036-0.055-0.078-0.097-0.127-0.128
			c-0.049-0.032-0.11-0.048-0.182-0.048c-0.351,0-0.856,0.49-1.518,1.469c-0.661,0.979-1.252,2.04-1.774,3.181
			c-0.315,0.692-0.666,1.608-1.052,2.75c-0.245,0.719-0.57,1.738-0.978,3.059h-2.069l2.247-8.113
			c0.125-0.467,0.227-0.885,0.303-1.253c0.076-0.368,0.114-0.669,0.114-0.903c0-0.27-0.067-0.476-0.202-0.619
			s-0.368-0.216-0.701-0.216c-0.108,0-0.243,0.009-0.404,0.026c-0.162,0.019-0.355,0.041-0.58,0.067v-0.444l0.54-0.107
			c0.701-0.144,1.467-0.297,2.299-0.459c0.831-0.161,1.27-0.242,1.314-0.242C319.712,203.236,319.769,203.261,319.8,203.311z"/>
	</g>
</g>
<g enable-background="new    ">
	<path d="M416.465,305.396c0.494,1.123,0.74,2.431,0.74,3.922c0,3.288-0.867,6.181-2.601,8.679
		c-1.707,2.444-3.634,3.666-5.781,3.666c-1.249,0-2.305-0.533-3.167-1.598s-1.294-2.535-1.294-4.413c0-3.136,0.849-6.042,2.548-8.72
		c1.742-2.74,3.684-4.11,5.821-4.11C414.457,302.821,415.701,303.68,416.465,305.396z M413.389,315.84
		c1.09-2.92,1.634-5.714,1.634-8.383c0-0.925-0.099-1.671-0.297-2.236c-0.36-1.078-1.04-1.617-2.038-1.617
		c-1.846,0-3.406,1.985-4.684,5.956c-0.973,3.037-1.458,5.566-1.458,7.588c0,0.854,0.099,1.567,0.297,2.143
		c0.378,1.114,1.071,1.671,2.079,1.671C410.641,320.961,412.129,319.254,413.389,315.84z"/>
</g>
<path fill="none" stroke="#000000" stroke-miterlimit="10" d="M351.77,259.771c11.729-14.644,29.762-24.021,49.98-24.021"/>
<g enable-background="new    ">
	<path d="M389.77,264.523c-0.109,0.555-0.348,1.09-0.715,1.605c-0.383,0.555-0.895,0.84-1.535,0.855
		c-0.352,0-0.648-0.109-0.891-0.328c-0.242-0.211-0.418-0.461-0.527-0.75c-0.242-0.656-0.355-1.27-0.34-1.84h-0.047
		c-0.43,0.766-1.02,1.438-1.77,2.016c-0.766,0.586-1.672,0.887-2.719,0.902c-1.305-0.016-2.328-0.438-3.07-1.266
		c-0.766-0.797-1.148-1.836-1.148-3.117c0.016-1.766,0.641-3.359,1.875-4.781c1.164-1.438,2.645-2.18,4.441-2.227
		c0.492,0,0.93,0.094,1.312,0.281c0.352,0.195,0.648,0.461,0.891,0.797c0.461,0.688,0.691,1.496,0.691,2.426h0.047l1.137-3.27h1.945
		l-2.977,7.582c0,0.5,0.117,0.957,0.352,1.371c0.227,0.414,0.59,0.629,1.09,0.645c0.398,0,0.707-0.094,0.926-0.281
		c0.227-0.195,0.43-0.477,0.609-0.844L389.77,264.523z M381.156,266.387c0.758-0.016,1.422-0.277,1.992-0.785
		c0.562-0.5,1.02-1.125,1.371-1.875c0.734-1.617,1.102-3.105,1.102-4.465c0-0.367-0.023-0.734-0.07-1.102
		c-0.062-0.367-0.176-0.695-0.34-0.984c-0.141-0.305-0.348-0.547-0.621-0.727c-0.289-0.172-0.648-0.258-1.078-0.258
		c-0.734,0.016-1.383,0.289-1.945,0.82c-0.547,0.523-1.012,1.195-1.395,2.016c-0.75,1.727-1.125,3.254-1.125,4.582
		c0,0.703,0.168,1.336,0.504,1.898C379.887,266.078,380.422,266.371,381.156,266.387z"/>
</g>
<g>
	<g enable-background="new    ">
		<path d="M313.317,119.484h0.445c0.197,1.087,0.431,1.882,0.701,2.385c0.494,0.926,1.23,1.389,2.21,1.389
			c0.548,0,1.008-0.193,1.381-0.58c0.373-0.386,0.56-0.898,0.56-1.536c0-0.396-0.047-0.719-0.142-0.971
			c-0.094-0.251-0.213-0.48-0.357-0.687l-1.118-1.658c-0.674-1.006-1.096-1.68-1.267-2.021c-0.261-0.512-0.391-1.024-0.391-1.536
			c0-0.781,0.281-1.471,0.842-2.068s1.359-0.896,2.392-0.896c0.44,0,0.943,0.083,1.509,0.249c0.566,0.167,0.952,0.25,1.159,0.25
			c0.224,0,0.391-0.045,0.499-0.135s0.207-0.211,0.296-0.364h0.391l-0.552,3.827h-0.445c-0.117-0.871-0.292-1.527-0.525-1.968
			c-0.432-0.817-1.114-1.226-2.049-1.226c-0.395,0-0.748,0.123-1.058,0.37s-0.465,0.608-0.465,1.085
			c0,0.368,0.069,0.692,0.208,0.971s0.456,0.772,0.95,1.482l0.957,1.374c0.494,0.71,0.844,1.289,1.051,1.738
			c0.207,0.45,0.31,0.935,0.31,1.456c0,0.97-0.413,1.788-1.24,2.452c-0.827,0.665-1.811,0.998-2.951,0.998
			c-0.369,0-0.894-0.077-1.577-0.229c-0.683-0.152-1.078-0.229-1.186-0.229c-0.18,0-0.312,0.041-0.397,0.122
			c-0.085,0.08-0.164,0.202-0.236,0.363h-0.445L313.317,119.484z"/>
	</g>
</g>
<g>
	<g>
		
			<line fill="none" stroke="#000000" stroke-width="1.4173" stroke-miterlimit="10" x1="250.11" y1="82.012" x2="265.449" y2="82.012"/>
		<g>
			<polygon points="264.046,84.071 271.729,82.012 264.046,79.953 			"/>
		</g>
	</g>
</g>
<g>
	<g>
		
			<line fill="none" stroke="#000000" stroke-width="1.4173" stroke-miterlimit="10" x1="473.764" y1="52.713" x2="489.104" y2="52.713"/>
		<g>
			<polygon points="487.699,54.772 495.383,52.713 487.699,50.654 			"/>
		</g>
	</g>
</g>
</svg>
